<svg aria-hidden="true" width="283" height="130" viewBox="0 0 283 130" xmlns="http://www.w3.org/2000/svg"><g fill="none" fill-rule="evenodd"><path d="M119.03 37.145s12.342 5.955 14.727 16.177c2.383 10.22 1.55 18.012 1.55 18.012s-9.388-5.407-13.94-10.53c-4.55-5.122-8.03-9.433-2.338-23.66M140.242 48.625s13.127 3.935 17.093 13.652c3.966 9.718 4.37 17.543 4.37 17.543s-10.122-3.86-15.425-8.2c-5.302-4.34-9.417-8.05-6.038-22.995M163.128 57.67s13.443 2.664 18.317 11.96c4.874 9.294 6.025 17.045 6.025 17.045s-10.446-2.876-16.137-6.692c-5.692-3.815-10.142-7.115-8.205-22.314M186.62 65.405s13.69.648 19.885 9.12c6.195 8.472 8.478 15.97 8.478 15.97s-10.756-1.303-16.95-4.234c-6.192-2.93-11.082-5.538-11.412-20.855" fill="#FF9566"/><path d="M240.076 77.447c-.02-.716.237-1.397.73-1.92.493-.52 1.163-.815 1.874-.84.717-.02 1.4.24 1.92.732 1.076 1.014 1.125 2.717.11 3.793-.447.472-1.034.762-1.675.828-.065.008-.133.01-.2.012-.716.022-1.398-.24-1.92-.73-.52-.492-.82-1.157-.84-1.875zm-25.258-.98l22.956 1.9c.204 1.03.708 1.973 1.488 2.708.99.934 2.282 1.426 3.642 1.388 1.363-.04 2.623-.607 3.558-1.596.475-.505.826-1.08 1.056-1.692l17.21 1.424.2-2.402-17.137-1.42c-.133-1.147-.632-2.26-1.536-3.112-.99-.934-2.283-1.426-3.644-1.388-.127.004-.254.013-.38.025-1.214.124-2.33.674-3.176 1.57-.565.6-.946 1.317-1.168 2.086l-22.87-1.897-.198 2.404zM263.642 57.204c.02.716-.238 1.397-.73 1.92-.447.472-1.036.76-1.674.825-.068.006-.134.01-.2.013-.718.02-1.4-.24-1.92-.73-.522-.493-.82-1.158-.84-1.876-.022-.715.237-1.397.73-1.92.493-.52 1.165-.824 1.874-.838.716-.023 1.397.236 1.918.728.522.493.82 1.158.84 1.876h.002zm18.288-3.28l-16.016 2.183c-.224-.96-.722-1.838-1.46-2.53-.988-.935-2.28-1.428-3.642-1.39-.127.005-.254.013-.38.027-1.214.124-2.33.674-3.177 1.57-.935.99-1.426 2.283-1.387 3.645 0 .014.005.03.005.048l-23.305 3.18c-3.987-1.9-12.9-5.857-16.892-5.264-4.17.623-7.93 2.8-9.417 5.212-2.13-.066-4.32-.226-6.564-.478 5.013-1.486 7.108-4.638 9.383-8.288 3.625-5.815 6.16-16.348 6.16-16.348s-7.71 1.403-16.84 6.58c-6.585 3.734-9.569 11.788-10.724 16-3.555-.804-7.212-1.785-10.953-2.93 4.9-.495 7.56-3.043 10.474-6.02 4.793-4.897 9.535-14.638 9.535-14.638s-7.83-.29-17.86 2.8c-7.51 2.312-12.247 10.024-14.153 13.756-3.095-1.164-6.234-2.43-9.407-3.774 3.956-.468 6.542-2.522 9.354-4.893 5.24-4.417 10.887-13.66 10.887-13.66s-7.767-1.036-18.047 1.08c-7.263 1.498-12.513 8.007-14.977 11.705-2.333-1.116-4.68-2.267-7.036-3.458 3.024-.336 5.448-1.725 8.066-3.303 5.87-3.534 12.904-11.774 12.904-11.774s-7.506-2.245-17.99-1.776c-7.627.342-13.982 6.265-16.89 9.476C64.62-.895 4.813-50.137-19.782-80.69l-3.757 3.022C16.14-28.383 138.946 64.03 206.875 65.452c2.13 2.175 6.507 3.694 10.536 3.69 4.07-.003 11.036-3.8 14.713-5.99l24.445-3.336c.245.423.53.824.894 1.168.992.935 2.284 1.427 3.644 1.39 1.36-.037 2.623-.608 3.558-1.597.6-.636.995-1.406 1.207-2.23l16.383-2.237-.323-2.387z" fill="#FF625F"/><path d="M241.34 46.305c-.49.52-1.154.818-1.874.84-.716.02-1.397-.238-1.92-.73-1.075-1.017-1.124-2.718-.11-3.796 1.015-1.076 2.718-1.126 3.796-.11 1.075 1.017 1.125 2.72.11 3.795m3.11-1.616l16.502-3.376-.482-2.362-16.47 3.37c-.265-.572-.632-1.106-1.116-1.564-1.12-1.057-2.597-1.506-4.02-1.36-1.173.12-2.31.644-3.18 1.567-.888.942-1.327 2.135-1.366 3.335l-20.81 4.257.482 2.36 20.818-4.256c.262.55.615 1.066 1.083 1.507.99.933 2.283 1.427 3.642 1.387 1.365-.036 2.624-.604 3.558-1.595.872-.924 1.31-2.092 1.36-3.27M240.076 77.447c-.02-.716.237-1.397.73-1.92.493-.52 1.163-.815 1.874-.84.717-.02 1.4.24 1.92.732 1.076 1.014 1.125 2.717.11 3.793-.447.472-1.034.762-1.675.828-.065.008-.133.01-.2.012-.716.022-1.398-.24-1.92-.73-.52-.492-.82-1.157-.84-1.875zm-25.258-.98l22.956 1.9c.204 1.03.708 1.973 1.488 2.708.99.934 2.282 1.426 3.642 1.388 1.363-.04 2.623-.607 3.558-1.596.475-.505.826-1.08 1.056-1.692l17.21 1.424.2-2.402-17.137-1.42c-.133-1.147-.632-2.26-1.536-3.112-.99-.934-2.283-1.426-3.644-1.388-.127.004-.254.013-.38.025-1.214.124-2.33.674-3.176 1.57-.565.6-.946 1.317-1.168 2.086l-22.87-1.897-.198 2.404z" fill="#FF625F"/><path d="M263.642 57.204c.02.716-.238 1.397-.73 1.92-.447.472-1.036.76-1.674.825-.068.006-.134.01-.2.013-.718.02-1.4-.24-1.92-.73-.522-.493-.82-1.158-.84-1.876-.022-.715.237-1.397.73-1.92.493-.52 1.165-.824 1.874-.838.716-.023 1.397.236 1.918.728.522.493.82 1.158.84 1.876h.002zm18.288-3.28l-16.016 2.183c-.224-.96-.722-1.838-1.46-2.53-.988-.935-2.28-1.428-3.642-1.39-.127.005-.254.013-.38.027-1.214.124-2.33.674-3.177 1.57-.935.99-1.426 2.283-1.387 3.645 0 .014.005.03.005.048l-23.305 3.18c-3.987-1.9-12.9-5.857-16.892-5.264-4.17.623-7.93 2.8-9.417 5.212-2.13-.066-4.32-.226-6.564-.478 5.013-1.486 7.108-4.638 9.383-8.288 3.625-5.815 6.16-16.348 6.16-16.348s-7.71 1.403-16.84 6.58c-6.585 3.734-9.569 11.788-10.724 16-3.555-.804-7.212-1.785-10.953-2.93 4.9-.495 7.56-3.043 10.474-6.02 4.793-4.897 9.535-14.638 9.535-14.638s-7.83-.29-17.86 2.8c-7.51 2.312-12.247 10.024-14.153 13.756-3.095-1.164-6.234-2.43-9.407-3.774 3.956-.468 6.542-2.522 9.354-4.893 5.24-4.417 10.887-13.66 10.887-13.66s-7.767-1.036-18.047 1.08c-7.263 1.498-12.513 8.007-14.977 11.705-2.333-1.116-4.68-2.267-7.036-3.458 3.024-.336 5.448-1.725 8.066-3.303 5.87-3.534 12.904-11.774 12.904-11.774s-7.506-2.245-17.99-1.776c-7.627.342-13.982 6.265-16.89 9.476C64.62-.895 4.813-50.137-19.782-80.69l-3.757 3.022C16.14-28.383 138.946 64.03 206.875 65.452c2.13 2.175 6.507 3.694 10.536 3.69 4.07-.003 11.036-3.8 14.713-5.99l24.445-3.336c.245.423.53.824.894 1.168.992.935 2.284 1.427 3.644 1.39 1.36-.037 2.623-.608 3.558-1.597.6-.636.995-1.406 1.207-2.23l16.383-2.237-.323-2.387z" fill="#FF625F"/><path d="M241.34 46.305c-.49.52-1.154.818-1.874.84-.716.02-1.397-.238-1.92-.73-1.075-1.017-1.124-2.718-.11-3.796 1.015-1.076 2.718-1.126 3.796-.11 1.075 1.017 1.125 2.72.11 3.795m3.11-1.616l16.502-3.376-.482-2.362-16.47 3.37c-.265-.572-.632-1.106-1.116-1.564-1.12-1.057-2.597-1.506-4.02-1.36-1.173.12-2.31.644-3.18 1.567-.888.942-1.327 2.135-1.366 3.335l-20.81 4.257.482 2.36 20.818-4.256c.262.55.615 1.066 1.083 1.507.99.933 2.283 1.427 3.642 1.387 1.365-.036 2.624-.604 3.558-1.595.872-.924 1.31-2.092 1.36-3.27M121.002 118.442l-9.39 10.858-7.24-6.26 9.392-10.86" fill="#FF625F"/><path fill="#FF9566" d="M115.33 110.372l-3.132 3.62-10.857-9.39-6.26 7.238 10.857 9.39 3.562-4.118-6.692 7.738-20.582-18.376 12.522-14.478"/><path fill="#FF625F" d="M89.77 94.295l-6.26 7.24-3.62-3.132 6.26-7.238"/><path d="M3.982-.115c37.353 56.732 81.746 94.5 82.19 94.875l-2.684 3.18C83.04 97.563 38.185 59.405.508 2.174L3.982-.115z" fill="#FF625F"/></g></svg>
